<mxfile host="65bd71144e">
    <diagram id="0n9Nl3iZqxso_Gwoz0lU" name="Page-1">
        <mxGraphModel dx="1138" dy="786" grid="1" gridSize="10" guides="1" tooltips="1" connect="1" arrows="1" fold="1" page="1" pageScale="1" pageWidth="850" pageHeight="1100" math="0" shadow="0">
            <root>
                <mxCell id="0"/>
                <mxCell id="1" parent="0"/>
                <mxCell id="2" value="Janela Inicial" style="rounded=0;whiteSpace=wrap;html=1;" parent="1" vertex="1">
                    <mxGeometry x="424" y="81" width="200" height="40" as="geometry"/>
                </mxCell>
                <mxCell id="3" value="Botão&lt;br&gt;Traduzir" style="rounded=1;whiteSpace=wrap;html=1;" parent="1" vertex="1">
                    <mxGeometry x="370" y="201" width="110" height="40" as="geometry"/>
                </mxCell>
                <mxCell id="4" value="Cria uma imagem&lt;br&gt;da página" style="ellipse;whiteSpace=wrap;html=1;" parent="1" vertex="1">
                    <mxGeometry x="189" y="101" width="115" height="80" as="geometry"/>
                </mxCell>
                <mxCell id="5" value="converte a imagem&lt;br&gt;em texto" style="ellipse;whiteSpace=wrap;html=1;" parent="1" vertex="1">
                    <mxGeometry x="184" y="211" width="120" height="80" as="geometry"/>
                </mxCell>
                <mxCell id="6" value="Faz a tradução&lt;br&gt;do texto" style="ellipse;whiteSpace=wrap;html=1;" parent="1" vertex="1">
                    <mxGeometry x="184" y="323" width="120" height="80" as="geometry"/>
                </mxCell>
                <mxCell id="7" value="" style="endArrow=classic;html=1;exitX=0;exitY=1;exitDx=0;exitDy=0;entryX=0.5;entryY=0;entryDx=0;entryDy=0;" parent="1" source="2" target="3" edge="1">
                    <mxGeometry width="50" height="50" relative="1" as="geometry">
                        <mxPoint x="654" y="451" as="sourcePoint"/>
                        <mxPoint x="404" y="197" as="targetPoint"/>
                    </mxGeometry>
                </mxCell>
                <mxCell id="8" value="" style="endArrow=classic;html=1;entryX=1;entryY=0.5;entryDx=0;entryDy=0;exitX=0;exitY=0;exitDx=0;exitDy=0;" parent="1" source="3" target="4" edge="1">
                    <mxGeometry width="50" height="50" relative="1" as="geometry">
                        <mxPoint x="654" y="451" as="sourcePoint"/>
                        <mxPoint x="704" y="401" as="targetPoint"/>
                    </mxGeometry>
                </mxCell>
                <mxCell id="9" value="" style="endArrow=classic;html=1;exitX=0.461;exitY=1.021;exitDx=0;exitDy=0;exitPerimeter=0;" parent="1" source="4" target="5" edge="1">
                    <mxGeometry width="50" height="50" relative="1" as="geometry">
                        <mxPoint x="654" y="451" as="sourcePoint"/>
                        <mxPoint x="704" y="401" as="targetPoint"/>
                    </mxGeometry>
                </mxCell>
                <mxCell id="10" value="" style="endArrow=classic;html=1;exitX=0.5;exitY=1;exitDx=0;exitDy=0;entryX=0.5;entryY=0;entryDx=0;entryDy=0;" parent="1" source="5" target="6" edge="1">
                    <mxGeometry width="50" height="50" relative="1" as="geometry">
                        <mxPoint x="654" y="451" as="sourcePoint"/>
                        <mxPoint x="254" y="311" as="targetPoint"/>
                    </mxGeometry>
                </mxCell>
                <mxCell id="12" value="Permite editar&lt;br&gt;e salvar o&lt;br&gt;texto traduzido" style="shape=note;whiteSpace=wrap;html=1;backgroundOutline=1;darkOpacity=0.05;" parent="1" vertex="1">
                    <mxGeometry x="145" y="440" width="80" height="100" as="geometry"/>
                </mxCell>
                <mxCell id="13" value="" style="endArrow=classic;html=1;entryX=0.5;entryY=0;entryDx=0;entryDy=0;entryPerimeter=0;exitX=0.5;exitY=1;exitDx=0;exitDy=0;" parent="1" source="6" target="12" edge="1">
                    <mxGeometry width="50" height="50" relative="1" as="geometry">
                        <mxPoint x="654" y="421" as="sourcePoint"/>
                        <mxPoint x="704" y="371" as="targetPoint"/>
                    </mxGeometry>
                </mxCell>
                <mxCell id="14" value="Mostra o texto&lt;br&gt;original extraido da pagina" style="shape=note;whiteSpace=wrap;html=1;backgroundOutline=1;darkOpacity=0.05;" parent="1" vertex="1">
                    <mxGeometry x="251" y="441" width="80" height="100" as="geometry"/>
                </mxCell>
                <mxCell id="15" value="" style="endArrow=classic;html=1;entryX=0.5;entryY=0;entryDx=0;entryDy=0;entryPerimeter=0;exitX=0.5;exitY=1;exitDx=0;exitDy=0;" parent="1" source="6" target="14" edge="1">
                    <mxGeometry width="50" height="50" relative="1" as="geometry">
                        <mxPoint x="494" y="401" as="sourcePoint"/>
                        <mxPoint x="544" y="351" as="targetPoint"/>
                    </mxGeometry>
                </mxCell>
                <mxCell id="16" value="Botão&lt;br&gt;Ler" style="rounded=1;whiteSpace=wrap;html=1;" parent="1" vertex="1">
                    <mxGeometry x="490" y="201" width="70" height="40" as="geometry"/>
                </mxCell>
                <mxCell id="17" value="" style="endArrow=classic;html=1;entryX=0.5;entryY=0;entryDx=0;entryDy=0;" parent="1" target="16" edge="1">
                    <mxGeometry width="50" height="50" relative="1" as="geometry">
                        <mxPoint x="524" y="121" as="sourcePoint"/>
                        <mxPoint x="504" y="341" as="targetPoint"/>
                    </mxGeometry>
                </mxCell>
                <mxCell id="18" value="converte o texto traduzido em voz" style="ellipse;whiteSpace=wrap;html=1;" parent="1" vertex="1">
                    <mxGeometry x="501" y="480" width="110" height="60" as="geometry"/>
                </mxCell>
                <mxCell id="19" value="Mostra a pagina traduzida" style="shape=note;whiteSpace=wrap;html=1;backgroundOutline=1;darkOpacity=0.05;" parent="1" vertex="1">
                    <mxGeometry x="424" y="368" width="80" height="100" as="geometry"/>
                </mxCell>
                <mxCell id="20" value="Janela para leitura das paginas traduzidas" style="rounded=0;whiteSpace=wrap;html=1;" parent="1" vertex="1">
                    <mxGeometry x="424" y="271" width="200" height="60" as="geometry"/>
                </mxCell>
                <mxCell id="21" value="Botão&lt;br&gt;Falar" style="rounded=1;whiteSpace=wrap;html=1;" parent="1" vertex="1">
                    <mxGeometry x="539" y="391" width="70" height="40" as="geometry"/>
                </mxCell>
                <mxCell id="22" value="Em caso de sucesso junta as partes mp3" style="ellipse;whiteSpace=wrap;html=1;" parent="1" vertex="1">
                    <mxGeometry x="501" y="580" width="110" height="70" as="geometry"/>
                </mxCell>
                <mxCell id="25" value="Janela para reproduzir o mp3" style="rounded=0;whiteSpace=wrap;html=1;" parent="1" vertex="1">
                    <mxGeometry x="624" y="481" width="110" height="50" as="geometry"/>
                </mxCell>
                <mxCell id="26" value="" style="endArrow=classic;html=1;entryX=0.5;entryY=0;entryDx=0;entryDy=0;exitX=0.75;exitY=1;exitDx=0;exitDy=0;" parent="1" source="20" target="21" edge="1">
                    <mxGeometry width="50" height="50" relative="1" as="geometry">
                        <mxPoint x="654" y="431" as="sourcePoint"/>
                        <mxPoint x="704" y="381" as="targetPoint"/>
                    </mxGeometry>
                </mxCell>
                <mxCell id="27" value="" style="endArrow=classic;html=1;entryX=0;entryY=0;entryDx=50;entryDy=0;entryPerimeter=0;exitX=0.25;exitY=1;exitDx=0;exitDy=0;" parent="1" source="20" target="19" edge="1">
                    <mxGeometry width="50" height="50" relative="1" as="geometry">
                        <mxPoint x="654" y="431" as="sourcePoint"/>
                        <mxPoint x="704" y="381" as="targetPoint"/>
                    </mxGeometry>
                </mxCell>
                <mxCell id="28" value="" style="endArrow=classic;html=1;entryX=0.5;entryY=0;entryDx=0;entryDy=0;exitX=0.25;exitY=1;exitDx=0;exitDy=0;" parent="1" source="21" target="18" edge="1">
                    <mxGeometry width="50" height="50" relative="1" as="geometry">
                        <mxPoint x="654" y="431" as="sourcePoint"/>
                        <mxPoint x="704" y="381" as="targetPoint"/>
                    </mxGeometry>
                </mxCell>
                <mxCell id="29" value="" style="endArrow=classic;html=1;entryX=0.5;entryY=0;entryDx=0;entryDy=0;exitX=0.75;exitY=1;exitDx=0;exitDy=0;" parent="1" source="21" target="25" edge="1">
                    <mxGeometry width="50" height="50" relative="1" as="geometry">
                        <mxPoint x="654" y="431" as="sourcePoint"/>
                        <mxPoint x="704" y="381" as="targetPoint"/>
                    </mxGeometry>
                </mxCell>
                <mxCell id="31" value="" style="endArrow=classic;html=1;entryX=0.5;entryY=0;entryDx=0;entryDy=0;exitX=0.5;exitY=1;exitDx=0;exitDy=0;" parent="1" source="18" target="22" edge="1">
                    <mxGeometry width="50" height="50" relative="1" as="geometry">
                        <mxPoint x="654" y="431" as="sourcePoint"/>
                        <mxPoint x="704" y="381" as="targetPoint"/>
                    </mxGeometry>
                </mxCell>
                <mxCell id="32" value="" style="endArrow=classic;html=1;exitX=1;exitY=0.5;exitDx=0;exitDy=0;entryX=0.5;entryY=1;entryDx=0;entryDy=0;" parent="1" source="22" target="25" edge="1">
                    <mxGeometry width="50" height="50" relative="1" as="geometry">
                        <mxPoint x="654" y="431" as="sourcePoint"/>
                        <mxPoint x="704" y="381" as="targetPoint"/>
                    </mxGeometry>
                </mxCell>
                <mxCell id="33" value="" style="endArrow=classic;html=1;exitX=0.5;exitY=1;exitDx=0;exitDy=0;entryX=0.5;entryY=0;entryDx=0;entryDy=0;" parent="1" source="16" target="20" edge="1">
                    <mxGeometry width="50" height="50" relative="1" as="geometry">
                        <mxPoint x="654" y="431" as="sourcePoint"/>
                        <mxPoint x="704" y="381" as="targetPoint"/>
                    </mxGeometry>
                </mxCell>
                <mxCell id="34" value="Usando pytesseract" style="text;html=1;strokeColor=none;fillColor=none;align=center;verticalAlign=middle;whiteSpace=wrap;rounded=0;" parent="1" vertex="1">
                    <mxGeometry x="114" y="236" width="60" height="30" as="geometry"/>
                </mxCell>
                <mxCell id="35" value="Usando&lt;br&gt;googletrans" style="text;html=1;strokeColor=none;fillColor=none;align=center;verticalAlign=middle;whiteSpace=wrap;rounded=0;" parent="1" vertex="1">
                    <mxGeometry x="99" y="338" width="90" height="50" as="geometry"/>
                </mxCell>
                <mxCell id="36" value="Usando&lt;br&gt;pdf2Image" style="text;html=1;strokeColor=none;fillColor=none;align=center;verticalAlign=middle;whiteSpace=wrap;rounded=0;" parent="1" vertex="1">
                    <mxGeometry x="107" y="121" width="80" height="40" as="geometry"/>
                </mxCell>
                <mxCell id="37" value="Usando&lt;br&gt;pysimplegui" style="text;html=1;strokeColor=none;fillColor=none;align=center;verticalAlign=middle;whiteSpace=wrap;rounded=0;" parent="1" vertex="1">
                    <mxGeometry x="469" y="41" width="85" height="30" as="geometry"/>
                </mxCell>
                <mxCell id="38" value="pysimplegui::Multiline" style="text;html=1;strokeColor=none;fillColor=none;align=center;verticalAlign=middle;whiteSpace=wrap;rounded=0;" parent="1" vertex="1">
                    <mxGeometry x="199" y="550" width="60" height="30" as="geometry"/>
                </mxCell>
                <mxCell id="39" value="Usando&lt;br&gt;audioplayer" style="text;html=1;strokeColor=none;fillColor=none;align=center;verticalAlign=middle;whiteSpace=wrap;rounded=0;" parent="1" vertex="1">
                    <mxGeometry x="659" y="438" width="60" height="30" as="geometry"/>
                </mxCell>
                <mxCell id="40" value="Usando gtts" style="text;html=1;strokeColor=none;fillColor=none;align=center;verticalAlign=middle;whiteSpace=wrap;rounded=0;" vertex="1" parent="1">
                    <mxGeometry x="439" y="499" width="60" height="30" as="geometry"/>
                </mxCell>
                <mxCell id="41" value="Usando&lt;br&gt;pydub" style="text;html=1;strokeColor=none;fillColor=none;align=center;verticalAlign=middle;whiteSpace=wrap;rounded=0;" vertex="1" parent="1">
                    <mxGeometry x="437" y="600" width="60" height="30" as="geometry"/>
                </mxCell>
            </root>
        </mxGraphModel>
    </diagram>
</mxfile>